<svg width="89" height="72" viewBox="0 0 89 72" fill="none" xmlns="http://www.w3.org/2000/svg">
<path opacity="0.7" d="M1 52.0572H0L0 53.0572H1V52.0572ZM87.7427 52.0572H88.7427V51.0572H87.7427V52.0572ZM0 0.644043L0 2.78626H2V0.644043L0 0.644043ZM0 7.07069L0 11.3551H2L2 7.07069H0ZM0 15.6396L0 19.924H2V15.6396H0ZM0 24.2084L0 28.4929H2L2 24.2084H0ZM0 32.7773L0 37.0617H2L2 32.7773H0ZM0 41.3462L0 45.6306H2V41.3462H0ZM0 49.915L0 52.0572H2V49.915H0ZM1 53.0572H2.97142V51.0572H1V53.0572ZM6.91427 53.0572H10.8571V51.0572H6.91427L6.91427 53.0572ZM14.8 53.0572H18.7428V51.0572H14.8V53.0572ZM22.6857 53.0572H26.6285V51.0572H22.6857V53.0572ZM30.5714 53.0572H34.5142V51.0572H30.5714V53.0572ZM38.4571 53.0572H42.3999V51.0572H38.4571V53.0572ZM46.3428 53.0572H50.2856V51.0572H46.3428V53.0572ZM54.2285 53.0572H58.1713V51.0572H54.2285V53.0572ZM62.1142 53.0572H66.057V51.0572H62.1142V53.0572ZM69.9998 53.0572H73.9427V51.0572H69.9998V53.0572ZM77.8855 53.0572H81.8284V51.0572H77.8855V53.0572ZM85.7712 53.0572H87.7427V51.0572H85.7712V53.0572ZM86.7427 52.0572V54.467H88.7427V52.0572H86.7427ZM86.7427 59.2864V64.1059H88.7427V59.2864H86.7427ZM86.7427 68.9253V71.335H88.7427V68.9253H86.7427Z" fill="white"/>
</svg>
