<svg width="204" height="70" viewBox="0 0 204 70" fill="none" xmlns="http://www.w3.org/2000/svg">
<path opacity="0.7" d="M1 52.2726H0L0 53.2726H1V52.2726ZM202.564 52.2726V53.2726H203.564V52.2726H202.564ZM101.782 69.8883L107.555 59.8883H96.0085L101.782 69.8883ZM0 0.859375L0 3.00159H2V0.859375L0 0.859375ZM0 7.28602L0 11.5705H2L2 7.28602H0ZM0 15.8549L0 20.1393H2V15.8549H0ZM0 24.4238L0 28.7082H2L2 24.4238H0ZM0 32.9926L0 37.2771H2L2 32.9926H0ZM0 41.5615L0 45.8459H2V41.5615H0ZM0 50.1303L0 52.2726H2V50.1303H0ZM1 53.2726H2.93811V51.2726H1V53.2726ZM6.81434 53.2726H10.6906V51.2726H6.81434L6.81434 53.2726ZM14.5668 53.2726H18.443V51.2726H14.5668V53.2726ZM22.3193 53.2726H26.1955V51.2726H22.3193V53.2726ZM30.0717 53.2726H33.948V51.2726H30.0717V53.2726ZM37.8242 53.2726H41.7004V51.2726H37.8242V53.2726ZM45.5766 53.2726H49.4529V51.2726H45.5766V53.2726ZM53.3291 53.2726H57.2053V51.2726H53.3291V53.2726ZM61.0816 53.2726H64.9578V51.2726H61.0816V53.2726ZM68.834 53.2726H72.7102V51.2726H68.834V53.2726ZM76.5865 53.2726H80.4627V51.2726H76.5865V53.2726ZM84.3389 53.2726H88.2152V51.2726H84.3389V53.2726ZM92.0914 53.2726H95.9676V51.2726H92.0914V53.2726ZM99.8438 53.2726H101.782V51.2726H99.8438V53.2726ZM101.782 53.2726H103.72V51.2726H101.782V53.2726ZM107.596 53.2726H111.473V51.2726H107.596V53.2726ZM115.349 53.2726H119.225V51.2726H115.349V53.2726ZM123.101 53.2726H126.977V51.2726H123.101V53.2726ZM130.854 53.2726H134.73V51.2726H130.854V53.2726ZM138.606 53.2726H142.482V51.2726H138.606V53.2726ZM146.359 53.2726H150.235V51.2726H146.359V53.2726ZM154.111 53.2726H157.987V51.2726H154.111V53.2726ZM161.864 53.2726H165.74V51.2726H161.864V53.2726ZM169.616 53.2726H173.492V51.2726H169.616V53.2726ZM177.368 53.2726H181.245V51.2726H177.368V53.2726ZM185.121 53.2726H188.997V51.2726H185.121V53.2726ZM192.873 53.2726H196.75V51.2726H192.873V53.2726ZM200.626 53.2726H202.564V51.2726H200.626V53.2726ZM203.564 52.2726V50.1304H201.564V52.2726H203.564ZM203.564 45.8459V41.5615H201.564V45.8459H203.564ZM203.564 37.2771V32.9926H201.564V37.2771H203.564ZM203.564 28.7082V24.4238H201.564V28.7082H203.564ZM203.564 20.1393V15.8549H201.564V20.1393H203.564ZM203.564 11.5705V7.28603H201.564V11.5705H203.564ZM203.564 3.0016V0.859375L201.564 0.859375V3.0016H203.564ZM100.782 52.2726V54.4745H102.782V52.2726H100.782ZM100.782 58.8785V63.2824H102.782V58.8785H100.782Z" fill="white"/>
</svg>
