<svg width="8" height="5" viewBox="0 0 8 5" fill="none" xmlns="http://www.w3.org/2000/svg">
<path d="M7.80269 0.209923C7.67115 0.0699741 7.50374 0 7.30045 0C7.09716 0 6.92975 0.0699741 6.79821 0.209923L4 3.18702L1.20179 0.209923C1.07025 0.0699741 0.90284 0 0.699551 0C0.496263 0 0.328849 0.0699741 0.197309 0.209923C0.0657695 0.349872 0 0.527988 0 0.744273C0 0.960557 0.0657695 1.13867 0.197309 1.27862L3.49776 4.79006C3.56951 4.8664 3.64723 4.9206 3.73094 4.95266C3.81465 4.98472 3.90433 5.0005 4 4.99999C4.09566 4.99999 4.18535 4.98396 4.26906 4.9519C4.35277 4.91984 4.43049 4.86589 4.50224 4.79006L7.80269 1.27862C7.93423 1.13867 8 0.960557 8 0.744273C8 0.527988 7.93423 0.349872 7.80269 0.209923Z" fill="white"/>
</svg>
