<svg width="28" height="27" viewBox="0 0 28 27" fill="none" xmlns="http://www.w3.org/2000/svg">
<g clip-path="url(#clip0_5202_44)">
<g clip-path="url(#clip1_5202_44)">
<path d="M14.0414 26.9809L10.5759 21.7828H12.3086V18.3174H15.7741V21.7828H17.5068L14.0414 26.9809ZM26.1703 0.990276V14.8519H1.9124V0.990276H26.1703ZM27.903 -0.742432H0.179688V16.5847H27.903V-0.742432Z" fill="#1643C3"/>
<path d="M14.0408 2.72278C15.4194 2.72278 16.7416 3.27044 17.7164 4.24527C18.6912 5.22011 19.2389 6.54227 19.2389 7.9209C19.2389 9.29953 18.6912 10.6217 17.7164 11.5965C16.7416 12.5714 15.4194 13.119 14.0408 13.119H22.7043V11.3863H24.437V4.45549H22.7043V2.72278H14.0408ZM8.84266 7.9209C8.84266 6.54227 9.39031 5.22011 10.3652 4.24527C11.34 3.27044 12.6622 2.72278 14.0408 2.72278H5.37724V4.45549H3.64453V11.3863H5.37724V13.119H14.0408C12.6622 13.119 11.34 12.5714 10.3652 11.5965C9.39031 10.6217 8.84266 9.29953 8.84266 7.9209Z" fill="#1643C3"/>
</g>
</g>
<defs>
<clipPath id="clip0_5202_44">
<rect width="27.7233" height="25.9906" fill="white" transform="translate(0.179688 0.123962)"/>
</clipPath>
<clipPath id="clip1_5202_44">
<rect width="27.7233" height="27.7233" fill="white" transform="translate(0.179688 -0.742432)"/>
</clipPath>
</defs>
</svg>
