<svg width="29" height="28" viewBox="0 0 29 28" fill="none" xmlns="http://www.w3.org/2000/svg">
<g clip-path="url(#clip0_5202_78)">
<path d="M14.4998 27.8471C20.242 27.8471 24.896 24.3817 24.896 18.3172C24.896 15.7182 24.0297 11.3864 20.5642 7.92097C20.9974 10.52 18.3984 11.3864 18.3984 11.3864C19.6979 7.05461 16.2325 0.990133 11.0343 0.123779C11.6529 3.5892 11.9007 7.05461 7.56893 10.52C5.40305 12.2527 4.10352 15.2486 4.10352 18.3172C4.10352 24.3817 8.75757 27.8471 14.4998 27.8471ZM14.4998 26.1144C11.6287 26.1144 9.30164 24.3817 9.30164 21.3495C9.30164 20.0499 9.73482 17.884 11.4675 16.1513C11.2509 17.4509 12.7671 18.3172 12.7671 18.3172C12.1173 16.1513 13.6334 12.6859 16.2325 12.2527C15.9223 13.9854 15.7993 15.7182 17.9652 17.4509C19.0481 18.3172 19.6979 19.8143 19.6979 21.3495C19.6979 24.3817 17.3709 26.1144 14.4998 26.1144Z" fill="#1643C3"/>
</g>
<defs>
<clipPath id="clip0_5202_78">
<rect width="27.7233" height="27.7233" fill="white" transform="translate(0.638672 0.123901)"/>
</clipPath>
</defs>
</svg>
