<svg width="28" height="28" viewBox="0 0 28 28" fill="none" xmlns="http://www.w3.org/2000/svg">
<path fill-rule="evenodd" clip-rule="evenodd" d="M19.538 2.02474C19.6278 1.88059 19.7582 1.76629 19.9129 1.69628C20.0676 1.62626 20.2396 1.60368 20.4072 1.63138L24.8234 2.36829C25.048 2.40574 25.2485 2.53081 25.3809 2.71601C25.5132 2.90121 25.5667 3.1314 25.5294 3.35598L24.7942 7.77398C24.7662 7.94146 24.6891 8.09686 24.5728 8.22054C24.4564 8.34423 24.306 8.43065 24.1406 8.46889C23.9751 8.50712 23.8021 8.49546 23.6432 8.43537C23.4844 8.37527 23.347 8.26945 23.2483 8.13127L22.0562 6.46507L15.917 10.3884C15.6552 10.5559 15.3417 10.6231 15.0342 10.5777C14.7267 10.5322 14.4461 10.3771 14.244 10.141L10.8205 6.1387L4.41854 9.42816C4.11467 9.58442 3.76118 9.61357 3.43582 9.5092C3.11046 9.40482 2.83989 9.17548 2.68363 8.87161C2.52737 8.56775 2.49822 8.21425 2.60259 7.88889C2.70697 7.56354 2.93631 7.29297 3.24018 7.1367L10.5491 3.38003C10.8072 3.24746 11.1024 3.20587 11.387 3.26198C11.6716 3.3181 11.929 3.46863 12.1174 3.68922L15.4738 7.61423L20.5583 4.36429L19.5672 2.97808C19.4687 2.83985 19.4133 2.67551 19.4081 2.50584C19.4029 2.33616 19.4481 2.16874 19.538 2.02474ZM8.29374 10.4588L3.30889 13.3102C3.11196 13.4227 2.94822 13.5852 2.83421 13.7812C2.7202 13.9773 2.65996 14.2 2.65958 14.4268V24.3037C2.65958 25.0148 3.23674 25.592 3.94788 25.592H8.29374V10.4588ZM10.4409 25.592H16.7415V13.8908L13.909 15.3062L11.0782 10.3523C10.9352 10.1004 10.7112 9.90421 10.4426 9.79575L10.4409 25.592ZM23.7018 25.592H18.8887V12.8172L23.1263 10.6976C23.3227 10.5995 23.541 10.5533 23.7603 10.5632C23.9796 10.5732 24.1927 10.639 24.3794 10.7545C24.5661 10.87 24.7202 11.0312 24.8271 11.223C24.934 11.4147 24.9901 11.6306 24.9901 11.8502V24.3037C24.9901 24.6454 24.8543 24.9731 24.6127 25.2147C24.3711 25.4563 24.0434 25.592 23.7018 25.592Z" fill="#1643C3"/>
</svg>
