<svg width="11" height="145" viewBox="0 0 11 145" fill="none" xmlns="http://www.w3.org/2000/svg">
<path d="M10.3344 139.345C10.3344 140.366 10.0314 141.364 9.46366 142.213C8.89589 143.062 8.08885 143.724 7.14466 144.114C6.20048 144.505 5.16158 144.607 4.15924 144.408C3.15689 144.209 2.2362 143.718 1.51353 142.996C0.790871 142.274 0.298701 141.354 0.0993036 140.353C-0.100094 139.351 0.00223204 138.313 0.39331 137.37C0.784387 136.427 1.44664 135.621 2.29638 135.054C3.14611 134.486 4.14518 134.184 5.16716 134.184C6.53759 134.184 7.85184 134.727 8.8209 135.695C9.78996 136.663 10.3344 137.976 10.3344 139.345Z" fill="#002F93"/>
<path d="M10.3344 105.799C10.3344 106.82 10.0314 107.818 9.46366 108.667C8.89589 109.516 8.08885 110.178 7.14466 110.569C6.20048 110.959 5.16158 111.061 4.15924 110.862C3.15689 110.663 2.2362 110.172 1.51353 109.45C0.790871 108.728 0.298701 107.808 0.0993036 106.807C-0.100094 105.805 0.00223204 104.768 0.39331 103.824C0.784387 102.881 1.44664 102.075 2.29638 101.508C3.14611 100.94 4.14518 100.638 5.16716 100.638C6.53759 100.638 7.85184 101.181 8.8209 102.15C9.78996 103.118 10.3344 104.43 10.3344 105.799Z" fill="#002F93"/>
<path d="M10.3344 72.2536C10.3344 73.2745 10.0314 74.2725 9.46366 75.1214C8.89589 75.9703 8.08885 76.6319 7.14466 77.0227C6.20048 77.4134 5.16158 77.5156 4.15924 77.3164C3.15689 77.1173 2.2362 76.6257 1.51353 75.9038C0.790871 75.1819 0.298701 74.2621 0.0993036 73.2608C-0.100094 72.2595 0.00223204 71.2216 0.39331 70.2784C0.784387 69.3352 1.44664 68.529 2.29638 67.9618C3.14611 67.3946 4.14518 67.0918 5.16716 67.0918C6.53759 67.0918 7.85184 67.6356 8.8209 68.6036C9.78996 69.5716 10.3344 70.8846 10.3344 72.2536Z" fill="#002F93"/>
<path d="M10.3344 38.7084C10.3344 39.7293 10.0313 40.7273 9.46353 41.5762C8.89574 42.425 8.08872 43.0866 7.14454 43.4773C6.20036 43.868 5.16145 43.9702 4.15911 43.771C3.15678 43.5718 2.23605 43.0802 1.51341 42.3583C0.790767 41.6364 0.29868 40.7167 0.0992979 39.7154C-0.100084 38.7141 0.00222071 37.6762 0.393304 36.7329C0.784387 35.7897 1.44664 34.9835 2.29637 34.4163C3.1461 33.8491 4.14518 33.5464 5.16715 33.5464C5.84574 33.5464 6.51761 33.6799 7.14454 33.9393C7.77148 34.1987 8.34118 34.5789 8.82101 35.0583C9.30084 35.5376 9.68144 36.1067 9.94112 36.7329C10.2008 37.3592 10.3344 38.0305 10.3344 38.7084Z" fill="#002F93"/>
<path d="M10.3344 5.16201C10.3344 6.18293 10.0313 7.18092 9.46353 8.02977C8.89574 8.87863 8.08872 9.54023 7.14454 9.93091C6.20036 10.3216 5.16145 10.4238 4.15911 10.2246C3.15678 10.0255 2.23605 9.53383 1.51341 8.81193C0.790767 8.09003 0.29868 7.17028 0.0992979 6.16898C-0.100084 5.16767 0.00222071 4.1298 0.393304 3.18659C0.784387 2.24338 1.44664 1.43719 2.29637 0.869986C3.1461 0.30278 4.14518 1.89752e-05 5.16715 1.28368e-09C5.84574 -1.51172e-05 6.51761 0.133513 7.14454 0.392922C7.77148 0.652332 8.34118 1.03257 8.82101 1.51191C9.30084 1.99125 9.68144 2.5603 9.94112 3.18659C10.2008 3.81288 10.3344 4.48412 10.3344 5.16201Z" fill="#002F93"/>
</svg>
