<svg width="28" height="29" viewBox="0 0 28 29" fill="none" xmlns="http://www.w3.org/2000/svg">
<path d="M14.0009 2.88116C10.8162 2.88116 8.22518 5.47214 8.22518 8.65686V12.1223H7.07004C6.45732 12.1223 5.86969 12.3657 5.43643 12.7989C5.00317 13.2322 4.75977 13.8198 4.75977 14.4326V23.6737C4.75977 24.2864 5.00317 24.874 5.43643 25.3073C5.86969 25.7405 6.45732 25.9839 7.07004 25.9839H20.9317C21.5444 25.9839 22.1321 25.7405 22.5653 25.3073C22.9986 24.874 23.242 24.2864 23.242 23.6737V14.4326C23.242 13.8198 22.9986 13.2322 22.5653 12.7989C22.1321 12.3657 21.5444 12.1223 20.9317 12.1223H19.7766V8.65686C19.7766 5.47214 17.1856 2.88116 14.0009 2.88116ZM10.5355 8.65686C10.5355 6.74626 12.0903 5.19144 14.0009 5.19144C15.9115 5.19144 17.4663 6.74626 17.4663 8.65686V12.1223H10.5355V8.65686ZM15.156 21.0434V23.6737H12.8457V21.0434C12.4419 20.8121 12.1176 20.4639 11.9157 20.0446C11.7137 19.6253 11.6436 19.1547 11.7145 18.6947C11.7854 18.2348 11.9941 17.8071 12.3129 17.4682C12.6318 17.1292 13.0459 16.8948 13.5007 16.796C13.8385 16.7213 14.1887 16.7234 14.5256 16.8021C14.8625 16.8808 15.1774 17.0341 15.4471 17.2507C15.7168 17.4673 15.9345 17.7417 16.084 18.0537C16.2336 18.3656 16.3112 18.7072 16.3112 19.0531C16.3105 19.4571 16.2034 19.8538 16.0006 20.2032C15.7978 20.5526 15.5065 20.8424 15.156 21.0434Z" fill="#1643C3"/>
</svg>
