<svg width="24" height="24" viewBox="0 0 24 24" fill="none" xmlns="http://www.w3.org/2000/svg">
<path d="M13.4445 17.6309C14.4402 17.6309 15.3951 17.2354 16.0991 16.5313C16.8032 15.8273 17.1987 14.8724 17.1987 13.8767V4.63561C17.1987 3.63993 16.8032 2.68504 16.0991 1.98099C15.3951 1.27694 14.4402 0.881409 13.4445 0.881409H4.20342C3.20774 0.881409 2.25285 1.27694 1.5488 1.98099C0.844749 2.68504 0.449219 3.63993 0.449219 4.63561V13.8767C0.449219 14.8724 0.844749 15.8273 1.5488 16.5313C2.25285 17.2354 3.20774 17.6309 4.20342 17.6309H13.4445ZM6.80248 18.7861H8.53519V20.23C8.53519 21.3458 9.44082 22.2515 10.5567 22.2515H19.7978C20.3339 22.2515 20.8481 22.0385 21.2272 21.6594C21.6063 21.2803 21.8193 20.7661 21.8193 20.23V10.9889C21.8193 10.4527 21.6063 9.93856 21.2272 9.55946C20.8481 9.18036 20.3339 8.96738 19.7978 8.96738H18.3539V7.23467H19.7978C20.2908 7.23467 20.779 7.33178 21.2345 7.52044C21.6899 7.70911 22.1038 7.98564 22.4524 8.33425C22.801 8.68286 23.0776 9.09672 23.2662 9.5522C23.4549 10.0077 23.552 10.4959 23.552 10.9889V20.23C23.552 20.723 23.4549 21.2112 23.2662 21.6667C23.0776 22.1221 22.801 22.536 22.4524 22.8846C22.1038 23.2332 21.6899 23.5097 21.2345 23.6984C20.779 23.8871 20.2908 23.9842 19.7978 23.9842H10.5567C10.0637 23.9842 9.57549 23.8871 9.12001 23.6984C8.66453 23.5097 8.25067 23.2332 7.90206 22.8846C7.55345 22.536 7.27692 22.1221 7.08825 21.6667C6.89959 21.2112 6.80248 20.723 6.80248 20.23V18.7861Z" fill="#1643C3"/>
</svg>
