<svg width="20" height="20" viewBox="0 0 20 20" fill="none" xmlns="http://www.w3.org/2000/svg">
<path d="M0.240234 4.19683C0.240234 3.08292 0.682733 2.01463 1.47039 1.22698C2.25804 0.439325 3.32633 -0.00317383 4.44024 -0.00317383H15.6402C16.7541 -0.00317383 17.8224 0.439325 18.6101 1.22698C19.3977 2.01463 19.8402 3.08292 19.8402 4.19683V15.3968C19.8402 16.5107 19.3977 17.579 18.6101 18.3667C17.8224 19.1543 16.7541 19.5968 15.6402 19.5968H4.44024C3.32633 19.5968 2.25804 19.1543 1.47039 18.3667C0.682733 17.579 0.240234 16.5107 0.240234 15.3968V4.19683ZM5.14024 4.19683C4.95458 4.19683 4.77654 4.27058 4.64526 4.40185C4.51399 4.53313 4.44024 4.71118 4.44024 4.89683C4.44024 5.08248 4.51399 5.26053 4.64526 5.3918C4.77654 5.52308 4.95458 5.59683 5.14024 5.59683H14.9402C15.1259 5.59683 15.3039 5.52308 15.4352 5.3918C15.5665 5.26053 15.6402 5.08248 15.6402 4.89683C15.6402 4.71118 15.5665 4.53313 15.4352 4.40185C15.3039 4.27058 15.1259 4.19683 14.9402 4.19683H5.14024Z" fill="#1643C3"/>
</svg>
